<?xml version="1.0" encoding="UTF-8" standalone="no"?>
<!-- Created with Inkscape (http://www.inkscape.org/) -->

<svg
   xmlns:dc="http://purl.org/dc/elements/1.1/"
   xmlns:cc="http://creativecommons.org/ns#"
   xmlns:rdf="http://www.w3.org/1999/02/22-rdf-syntax-ns#"
   xmlns:svg="http://www.w3.org/2000/svg"
   xmlns="http://www.w3.org/2000/svg"
   xmlns:sodipodi="http://sodipodi.sourceforge.net/DTD/sodipodi-0.dtd"
   xmlns:inkscape="http://www.inkscape.org/namespaces/inkscape"
   width="24"
   height="24"
   id="svg2"
   version="1.1"
   inkscape:version="0.48.4 r9939"
   sodipodi:docname="appwidget_settings_led_on.svg"
   inkscape:export-filename="C:\Users\Rahat\Dropbox\Java\LEDWidget\vectors\appwidget_settings_led_on.png"
   inkscape:export-xdpi="90"
   inkscape:export-ydpi="90">
  <defs
     id="defs4" />
  <sodipodi:namedview
     id="base"
     pagecolor="#000000"
     bordercolor="#666666"
     borderopacity="1.0"
     inkscape:pageopacity="0.16470588"
     inkscape:pageshadow="2"
     inkscape:zoom="8.0000001"
     inkscape:cx="19.182441"
     inkscape:cy="30.367655"
     inkscape:document-units="px"
     inkscape:current-layer="layer1"
     showgrid="false"
     inkscape:snap-nodes="true"
     inkscape:window-width="1920"
     inkscape:window-height="1058"
     inkscape:window-x="-8"
     inkscape:window-y="-8"
     inkscape:window-maximized="1"
     inkscape:snap-grids="true">
    <inkscape:grid
       type="xygrid"
       id="grid2985"
       empspacing="4"
       visible="true"
       enabled="true"
       snapvisiblegridlinesonly="true"
       spacingx="2px"
       spacingy="2px" />
  </sodipodi:namedview>
  <metadata
     id="metadata7">
    <rdf:RDF>
      <cc:Work
         rdf:about="">
        <dc:format>image/svg+xml</dc:format>
        <dc:type
           rdf:resource="http://purl.org/dc/dcmitype/StillImage" />
        <dc:title />
      </cc:Work>
    </rdf:RDF>
  </metadata>
  <g
     inkscape:label="Layer 1"
     inkscape:groupmode="layer"
     id="layer1"
     transform="translate(0,-1028.3622)">
    <path
       style="fill:#ffffff;fill-opacity:0.8;stroke:none"
       d="m 12,1034.5488 c -2.4852814,0 -4.5,2.0148 -4.5,4.5001 0,1.1532 0.4352535,2.2038 1.1484375,3.0001 0.00452,0 0.00724,0.01 0.011719,0.012 0.1279488,0.1418 0.2652915,0.2739 0.4101562,0.3984 1.1757333,1.358 0.066086,2.6581 1.4296873,3.3399 l 3,0 c 1.363601,-0.6818 0.257255,-1.9819 1.429688,-3.3399 0.144864,-0.1245 0.282207,-0.2566 0.410156,-0.3984 0.0037,0 0.008,-0.01 0.01172,-0.012 0.713183,-0.7963 1.148437,-1.8469 1.148437,-3.0001 0,-2.4853 -2.014719,-4.5001 -4.5,-4.5001 z"
       id="path3759"
       inkscape:connector-curvature="0" />
    <rect
       style="fill:#ffffff;fill-opacity:0.8;stroke:none"
       id="rect3765"
       width="3"
       height="1.1250286"
       x="10.5"
       y="1046.1741"
       ry="0.14552109" />
    <rect
       style="fill:#ffffff;fill-opacity:0.8;stroke:none"
       id="rect3765-7"
       width="2.25"
       height="1.1250286"
       x="10.875"
       y="1047.6742"
       ry="0.14552109" />
    <rect
       style="fill:#ffffff;fill-opacity:0.8;stroke:none"
       id="rect3019"
       width="1.5"
       height="3.7500951"
       x="11.25"
       y="1029.1112"
       ry="0.14552109" />
    <rect
       style="fill:#ffffff;fill-opacity:0.8;stroke:none"
       id="rect3019-1"
       width="1.5000381"
       height="3.75"
       x="1038.299"
       y="-21.75"
       ry="0.14551739"
       transform="matrix(0,1,-1,0,0,0)" />
    <rect
       style="fill:#ffffff;fill-opacity:0.8;stroke:none"
       id="rect3019-1-7"
       width="1.5000381"
       height="3.75"
       x="1038.299"
       y="-6"
       ry="0.14551739"
       transform="matrix(0,1,-1,0,0,0)" />
    <rect
       style="fill:#ffffff;fill-opacity:0.8;stroke:none"
       id="rect3019-1-7-4"
       width="1.5000191"
       height="3.7500477"
       x="725.58557"
       y="-736.58429"
       ry="0.14551924"
       transform="matrix(-0.7070978,0.70711576,-0.7070978,-0.70711576,0,0)" />
    <rect
       style="fill:#ffffff;fill-opacity:0.8;stroke:none"
       id="rect3019-1-7-4-5"
       width="1.5000191"
       height="3.7500477"
       x="-744.20984"
       y="-719.46008"
       ry="0.14551924"
       transform="matrix(-0.7070978,-0.70711576,0.7070978,-0.70711576,0,0)" />
  </g>
</svg>
