<?xml version="1.0" encoding="UTF-8" standalone="no"?>
<!-- Created with Inkscape (http://www.inkscape.org/) -->

<svg
   xmlns:dc="http://purl.org/dc/elements/1.1/"
   xmlns:cc="http://creativecommons.org/ns#"
   xmlns:rdf="http://www.w3.org/1999/02/22-rdf-syntax-ns#"
   xmlns:svg="http://www.w3.org/2000/svg"
   xmlns="http://www.w3.org/2000/svg"
   xmlns:sodipodi="http://sodipodi.sourceforge.net/DTD/sodipodi-0.dtd"
   xmlns:inkscape="http://www.inkscape.org/namespaces/inkscape"
   width="24"
   height="24"
   id="svg2"
   version="1.1"
   inkscape:version="0.48.4 r9939"
   sodipodi:docname="appwidget_settings_led_off.svg"
   inkscape:export-filename="C:\Users\Rahat\Dropbox\Java\LEDWidget\vectors\appwidget_settings_led_off.png"
   inkscape:export-xdpi="90"
   inkscape:export-ydpi="90">
  <defs
     id="defs4" />
  <sodipodi:namedview
     id="base"
     pagecolor="#000000"
     bordercolor="#666666"
     borderopacity="1.0"
     inkscape:pageopacity="0"
     inkscape:pageshadow="2"
     inkscape:zoom="8.0000001"
     inkscape:cx="19.182441"
     inkscape:cy="30.367655"
     inkscape:document-units="px"
     inkscape:current-layer="layer1"
     showgrid="false"
     inkscape:snap-nodes="true"
     inkscape:window-width="1920"
     inkscape:window-height="1058"
     inkscape:window-x="-8"
     inkscape:window-y="-8"
     inkscape:window-maximized="1"
     inkscape:snap-grids="true">
    <inkscape:grid
       type="xygrid"
       id="grid2985"
       empspacing="4"
       visible="true"
       enabled="true"
       snapvisiblegridlinesonly="true"
       spacingx="2px"
       spacingy="2px" />
  </sodipodi:namedview>
  <metadata
     id="metadata7">
    <rdf:RDF>
      <cc:Work
         rdf:about="">
        <dc:format>image/svg+xml</dc:format>
        <dc:type
           rdf:resource="http://purl.org/dc/dcmitype/StillImage" />
        <dc:title />
      </cc:Work>
    </rdf:RDF>
  </metadata>
  <g
     inkscape:label="Layer 1"
     inkscape:groupmode="layer"
     id="layer1"
     transform="translate(0,-1028.3622)">
    <path
       style="fill:#ffffff;fill-opacity:0.30196078;stroke:none"
       d="m 12,1034.5497 c -2.485281,0 -4.5,2.0147 -4.5,4.5 0,1.1531 0.435254,2.2037 1.148438,3 0.0045,0 0.0072,0.01 0.01172,0.012 0.127949,0.1418 0.265292,0.2739 0.410157,0.3985 1.175733,1.3579 0.06609,2.658 1.429687,3.3398 l 3,0 c 1.363601,-0.6818 0.257255,-1.9819 1.429687,-3.3398 0.144865,-0.1246 0.282208,-0.2567 0.410157,-0.3985 0.0037,0 0.008,-0.01 0.01172,-0.012 0.713184,-0.7963 1.148438,-1.8469 1.148438,-3 0,-2.4853 -2.014719,-4.5 -4.5,-4.5 z"
       id="path3759"
       inkscape:connector-curvature="0" />
    <rect
       style="fill:#ffffff;fill-opacity:0.30196078;stroke:none"
       id="rect3765"
       width="3"
       height="1.125"
       x="10.5"
       y="1046.1747"
       ry="0.14551739" />
    <rect
       style="fill:#ffffff;fill-opacity:0.30196078;stroke:none"
       id="rect3765-7"
       width="2.25"
       height="1.125"
       x="10.875"
       y="1047.6747"
       ry="0.14551739" />
    <rect
       style="fill:#ffffff;fill-opacity:0.30196078;stroke:none"
       id="rect3019"
       width="1.5"
       height="3.75"
       x="11.25"
       y="1029.1122"
       ry="0.14551739" />
    <rect
       style="fill:#ffffff;fill-opacity:0.30196078;stroke:none"
       id="rect3019-1"
       width="1.5"
       height="3.75"
       x="1038.2997"
       y="-21.75"
       ry="0.14551739"
       transform="matrix(0,1,-1,0,0,0)" />
    <rect
       style="fill:#ffffff;fill-opacity:0.30196078;stroke:none"
       id="rect3019-1-7"
       width="1.5"
       height="3.75"
       x="1038.2997"
       y="-6"
       ry="0.14551739"
       transform="matrix(0,1,-1,0,0,0)" />
    <rect
       style="fill:#ffffff;fill-opacity:0.30196078;stroke:none"
       id="rect3019-1-7-4"
       width="1.5"
       height="3.75"
       x="725.59558"
       y="-736.59412"
       ry="0.14551739"
       transform="matrix(-0.70710678,0.70710678,-0.70710678,-0.70710678,0,0)" />
    <rect
       style="fill:#ffffff;fill-opacity:0.30196078;stroke:none"
       id="rect3019-1-7-4-5"
       width="1.5"
       height="3.75"
       x="-744.21954"
       y="-719.47015"
       ry="0.14551739"
       transform="matrix(-0.70710678,-0.70710678,0.70710678,-0.70710678,0,0)" />
  </g>
</svg>
