<?xml version="1.0" encoding="UTF-8" standalone="no"?>
<!-- Created with Inkscape (http://www.inkscape.org/) -->

<svg
   xmlns:dc="http://purl.org/dc/elements/1.1/"
   xmlns:cc="http://creativecommons.org/ns#"
   xmlns:rdf="http://www.w3.org/1999/02/22-rdf-syntax-ns#"
   xmlns:svg="http://www.w3.org/2000/svg"
   xmlns="http://www.w3.org/2000/svg"
   xmlns:sodipodi="http://sodipodi.sourceforge.net/DTD/sodipodi-0.dtd"
   xmlns:inkscape="http://www.inkscape.org/namespaces/inkscape"
   width="64"
   height="64"
   id="svg2"
   version="1.1"
   inkscape:version="0.48.4 r9939"
   sodipodi:docname="led.svg">
  <defs
     id="defs4" />
  <sodipodi:namedview
     id="base"
     pagecolor="#000000"
     bordercolor="#666666"
     borderopacity="1.0"
     inkscape:pageopacity="1"
     inkscape:pageshadow="2"
     inkscape:zoom="8.0000001"
     inkscape:cx="38.682441"
     inkscape:cy="30.367655"
     inkscape:document-units="px"
     inkscape:current-layer="layer1"
     showgrid="false"
     inkscape:snap-nodes="true"
     inkscape:window-width="1920"
     inkscape:window-height="1058"
     inkscape:window-x="-8"
     inkscape:window-y="-8"
     inkscape:window-maximized="1"
     inkscape:snap-grids="true">
    <inkscape:grid
       type="xygrid"
       id="grid2985"
       empspacing="4"
       visible="true"
       enabled="true"
       snapvisiblegridlinesonly="true"
       spacingx="2px"
       spacingy="2px" />
  </sodipodi:namedview>
  <metadata
     id="metadata7">
    <rdf:RDF>
      <cc:Work
         rdf:about="">
        <dc:format>image/svg+xml</dc:format>
        <dc:type
           rdf:resource="http://purl.org/dc/dcmitype/StillImage" />
        <dc:title />
      </cc:Work>
    </rdf:RDF>
  </metadata>
  <g
     inkscape:label="Layer 1"
     inkscape:groupmode="layer"
     id="layer1"
     transform="translate(0,-988.36218)">
    <path
       style="fill:#ffffff;fill-opacity:1;stroke:none"
       d="m 32,1004.8622 c -6.627417,0 -12,5.3726 -12,12 0,3.0749 1.160676,5.8766 3.0625,8 0.01205,0.01 0.01931,0.022 0.03125,0.031 0.341197,0.3782 0.707444,0.7304 1.09375,1.0625 3.13529,3.6213 0.17623,7.0881 3.8125,8.9063 l 8,0 c 3.63627,-1.8182 0.686014,-5.285 3.8125,-8.9063 0.386306,-0.3321 0.752553,-0.6843 1.09375,-1.0625 0.0098,-0.011 0.02146,-0.02 0.03125,-0.031 1.901824,-2.1234 3.0625,-4.9251 3.0625,-8 0,-6.6274 -5.372583,-12 -12,-12 z"
       id="path3759"
       inkscape:connector-curvature="0" />
    <rect
       style="fill:#ffffff;fill-opacity:1;stroke:none"
       id="rect3765"
       width="8"
       height="3"
       x="28"
       y="1035.8622"
       ry="0.38804638" />
    <rect
       style="fill:#ffffff;fill-opacity:1;stroke:none"
       id="rect3765-7"
       width="6"
       height="3"
       x="29"
       y="1039.8622"
       ry="0.38804638" />
    <rect
       style="fill:#ffffff;fill-opacity:1;stroke:none"
       id="rect3019"
       width="4"
       height="10"
       x="30"
       y="2"
       transform="translate(0,988.36218)"
       ry="0.38804638" />
    <rect
       style="fill:#ffffff;fill-opacity:1;stroke:none"
       id="rect3019-1"
       width="4"
       height="10"
       x="1014.8622"
       y="-58"
       ry="0.38804638"
       transform="matrix(0,1,-1,0,0,0)" />
    <rect
       style="fill:#ffffff;fill-opacity:1;stroke:none"
       id="rect3019-1-7"
       width="4"
       height="10"
       x="1014.8622"
       y="-16"
       ry="0.38804638"
       transform="matrix(0,1,-1,0,0,0)" />
    <rect
       style="fill:#ffffff;fill-opacity:1;stroke:none"
       id="rect3019-1-7-4"
       width="4"
       height="10"
       x="694.70062"
       y="-724.03021"
       ry="0.38804638"
       transform="matrix(-0.70710678,0.70710678,-0.70710678,-0.70710678,0,0)" />
    <rect
       style="fill:#ffffff;fill-opacity:1;stroke:none"
       id="rect3019-1-7-4-5"
       width="4"
       height="10"
       x="-744.36469"
       y="-678.36615"
       ry="0.38804638"
       transform="matrix(-0.70710678,-0.70710678,0.70710678,-0.70710678,0,0)" />
  </g>
</svg>
